<?xml version="1.0" encoding="utf-8"?>
<!-- Generator: Adobe Illustrator 27.5.0, SVG Export Plug-In . SVG Version: 6.00 Build 0)  -->
<svg version="1.1" id="Layer_1" xmlns="http://www.w3.org/2000/svg" xmlns:xlink="http://www.w3.org/1999/xlink" x="0px" y="0px"
	 viewBox="0 0 3000 1800" style="enable-background:new 0 0 3000 1800;" xml:space="preserve">
<rect style="fill:none;" width="3000" height="1800"/>
<g>
	<path style="fill:#DCECFD;" d="M2759.181,1617.638c36.277-427.223-144.651-1374.125-1003.253-1289.477
		c-481.106,15.726-450.649,371.825-636.069,425.218c-185.42,53.393-553.039-110.019-748.92,255.815
		c-185.868,347.133,64.745,608.444,64.745,608.444H2759.181z"/>
	<path style="fill:#BEDBFA;" d="M2759.181,1617.638c0,0-2.209-209.647-15.745-280.317c0,0-69.762,69.185-66.535,155.441
		c0,0,12.681-118.745-97.926-192.635c0,0-32.583,56.899-20.139,171.879c0,0-55.794-63.277-150.104-67.937
		c0,0,5.568,101.119,63.651,163.068c0,0-18.782-35.712-138.78-39.391c0,0,37.564,61.383,71.999,89.894H2759.181z"/>
	<g>
		<path style="fill:#F9CE68;" d="M1658.615,716.115c-57.048,0.171-102.335-48.123-99.587-104.911h199.174
			C1760.95,667.993,1715.662,716.286,1658.615,716.115z"/>
		<g>
			<g>
				<path style="fill:#152E60;" d="M2501.608,1523.98c-6.366,0-12.096-4.419-13.508-10.892l-159.821-732.692l-662.376-356.209
					c-6.732-3.62-9.255-12.011-5.635-18.743c3.622-6.73,12.01-9.254,18.742-5.634l673.595,362.242l162.537,745.136
					C2517.107,1515.683,2510.305,1524.078,2501.608,1523.98z"/>
			</g>
			<path style="fill:#324D90;" d="M1830.703,648.469H1493.94c-11.826-124.354,22.592-248.027,168.388-253.493
				C1808.104,400.435,1842.552,524.181,1830.703,648.469z"/>
			<g>
				<path style="fill:#324D90;" d="M2384.443,781.462c-1.147,67.146-101.025,67.135-102.162-0.002
					C2283.427,714.315,2383.306,714.326,2384.443,781.462z"/>
				<path style="fill:#152E60;" d="M2361.444,781.462c-0.63,36.914-55.539,36.908-56.164-0.001
					C2305.91,744.548,2360.819,744.553,2361.444,781.462z"/>
			</g>
			<path style="fill:#152E60;" d="M2337.268,1617.638c35.237-158.88,299.623-159.82,325.406,0H2337.268z"/>
			<g>
				<path style="fill:#152E60;" d="M1830.703,611.445H1493.94c-2.248,0-4.07-1.822-4.07-4.07s1.822-4.07,4.07-4.07h336.763
					C1835.886,603.227,1836.054,611.523,1830.703,611.445z"/>
				<path style="fill:#152E60;" d="M1830.703,583.033H1493.94c-2.248,0-4.07-1.822-4.07-4.07c0-2.248,1.822-4.07,4.07-4.07h336.763
					C1835.886,574.815,1836.054,583.111,1830.703,583.033z"/>
			</g>
		</g>
	</g>
	<g>
		<g>
			<path style="fill:#324D90;" d="M1069.811,1617.638h-54.842c-6.36,0-11.515-5.156-11.515-11.515v-352.319
				c0-6.36,5.156-11.515,11.515-11.515h54.842c6.36,0,11.515,5.156,11.515,11.515v352.319
				C1081.327,1612.483,1076.171,1617.638,1069.811,1617.638z"/>
			<g>
				<rect x="1003.454" y="1283.466" style="fill:#2A437D;" width="77.873" height="24.594"/>
				<rect x="1003.454" y="1319.811" style="fill:#2A437D;" width="77.873" height="24.594"/>
			</g>
			<g>
				<rect x="1003.454" y="1506.999" style="fill:#2A437D;" width="77.873" height="24.594"/>
				<rect x="1003.454" y="1543.344" style="fill:#2A437D;" width="77.873" height="24.594"/>
			</g>
		</g>
		<g>
			<path style="fill:#2A437D;" d="M1168.487,1617.638h-76.028c-6.148,0-11.132-4.984-11.132-11.132v-241.87
				c0-6.148,4.984-11.132,11.132-11.132h76.028c6.148,0,11.132,4.984,11.132,11.132v241.87
				C1179.619,1612.654,1174.635,1617.638,1168.487,1617.638z"/>
			<rect x="1081.327" y="1391.911" style="fill:#324D90;" width="98.292" height="20.287"/>
			<rect x="1081.327" y="1553.743" style="fill:#324D90;" width="98.292" height="20.287"/>
			<path style="fill:#324D90;" d="M1163.277,1485.572c-0.736,43.121-64.878,43.114-65.608-0.001
				C1098.405,1442.451,1162.546,1442.458,1163.277,1485.572z"/>
		</g>
		<g>
			<path style="fill:#F9CE68;" d="M990.585,1617.638h-72.672c-7.108,0-12.87-5.762-12.87-12.87V1320.93
				c0-7.108,5.762-12.87,12.87-12.87h72.672c7.108,0,12.87,5.762,12.87,12.87v283.838
				C1003.454,1611.876,997.692,1617.638,990.585,1617.638z"/>
			<g>
				<path style="fill:#F08F3C;" d="M905.043,1344.406c32.562-2.819,65.849-2.841,98.411,0
					C970.893,1347.247,937.606,1347.224,905.043,1344.406L905.043,1344.406z"/>
				<path style="fill:#F08F3C;" d="M905.043,1372.021c32.562-2.819,65.849-2.841,98.411,0
					C970.893,1374.863,937.606,1374.84,905.043,1372.021L905.043,1372.021z"/>
			</g>
			<g>
				<path style="fill:#F08F3C;" d="M905.043,1555.641c32.562-2.819,65.849-2.841,98.411,0
					C970.893,1558.483,937.606,1558.46,905.043,1555.641L905.043,1555.641z"/>
				<path style="fill:#F08F3C;" d="M905.043,1583.257c32.562-2.819,65.849-2.841,98.411,0
					C970.893,1586.099,937.606,1586.076,905.043,1583.257L905.043,1583.257z"/>
			</g>
			<rect x="935.733" y="1391.18" style="fill:#F08F3C;" width="42.206" height="143.339"/>
		</g>
		<g>
			<path style="fill:#4292F3;" d="M829.028,1617.265l-66.499-15.321c-7.792-1.795-12.654-9.568-10.859-17.36l74.285-322.42
				c1.795-7.792,9.568-12.654,17.36-10.859l66.499,15.321c7.793,1.795,12.654,9.568,10.859,17.36l-74.284,322.42
				C844.593,1614.199,836.82,1619.061,829.028,1617.265z"/>
			
				<rect x="836.344" y="1288.494" transform="matrix(0.9745 0.2245 -0.2245 0.9745 313.3568 -161.7184)" style="fill:#324D90;" width="62.894" height="17.098"/>
			
				<rect x="830.164" y="1315.319" transform="matrix(0.9745 0.2245 -0.2245 0.9745 319.2238 -159.6468)" style="fill:#324D90;" width="62.894" height="17.098"/>
			
				<rect x="779.944" y="1533.294" transform="matrix(0.9745 0.2245 -0.2245 0.9745 366.8809 -142.807)" style="fill:#324D90;" width="62.894" height="17.098"/>
			
				<rect x="773.763" y="1560.119" transform="matrix(0.9745 0.2245 -0.2245 0.9745 372.7456 -140.7346)" style="fill:#324D90;" width="62.894" height="17.098"/>
			<g>
				<path style="fill:#324D90;" d="M881.289,1349.375c-11.32,58.517-24.862,117.36-40.302,174.925
					C852.292,1465.781,865.863,1406.946,881.289,1349.375L881.289,1349.375z"/>
				<path style="fill:#324D90;" d="M856.652,1345.393c-11.32,58.517-24.862,117.359-40.302,174.925
					C827.655,1461.8,841.226,1402.964,856.652,1345.393L856.652,1345.393z"/>
				<path style="fill:#324D90;" d="M832.015,1341.411c-11.32,58.517-24.862,117.36-40.302,174.925
					C803.018,1457.818,816.589,1398.983,832.015,1341.411L832.015,1341.411z"/>
			</g>
		</g>
	</g>
	<g>
		<g>
			<path style="fill:#59445A;" d="M1654.851,1009.194h-106.187l7.459-48.158l-29.837,48.158h-24.035
				c7.885-307.12,296.061-324.369,297.538,0h-23.817l-8.94-72.819l-10.517,72.819h-43.944v-71.767l-14.038,71.767L1654.851,1009.194
				z"/>
			<g>
				<g>
					<g>
						<path style="fill:#EDA19D;" d="M1581.98,913.779c5.611,35.426-24.118,40.474-30.518,5.183
							C1545.852,883.536,1575.581,878.489,1581.98,913.779z"/>
						<path style="fill:#EDA19D;" d="M1727.751,913.779c-5.611,35.426,24.118,40.474,30.518,5.183
							C1763.88,883.536,1734.151,878.489,1727.751,913.779z"/>
					</g>
					<g>
						<path style="fill:#F4D2C6;" d="M1699.768,943.621c-22.569,0-67.242,0-89.805,0c10.833,30.924-12.802,185.804-12.802,185.804
							c28.951,0,86.466,0,115.41,0C1712.571,1129.425,1688.936,974.544,1699.768,943.621z"/>
						<g>
							<defs>
								<path id="XMLID_00000114758168858081890430000002050320267334238097_" d="M1741.503,918.151
									c-2.156,138.659-171.133,138.642-173.275-0.004C1552.863,776.214,1752.282,774.825,1741.503,918.151z"/>
							</defs>
							<use xlink:href="#XMLID_00000114758168858081890430000002050320267334238097_"  style="overflow:visible;fill:#F4D2C6;"/>
							<clipPath id="XMLID_00000101103272509802179410000012127599874265681542_">
								<use xlink:href="#XMLID_00000114758168858081890430000002050320267334238097_"  style="overflow:visible;"/>
							</clipPath>
						</g>
					</g>
				</g>
				<path style="fill:#EDA19D;" d="M1611.187,1009.194c0,0,40.692,31.38,87.347,0l2.455,28.09c0,0-50.234,23.474-92.274,0.289
					L1611.187,1009.194z"/>
			</g>
			<path style="fill:#59445A;" d="M1672.413,812.753v66.406c0,0-53.63,4.388-103.003,12.015
				C1555.599,805.179,1669.896,773.309,1672.413,812.753z"/>
			<path style="fill:#59445A;" d="M1671.845,807.633l14.153,68.365c0,0,26.452,3.611,53.88,15.175
				C1739.877,891.174,1764.101,793.29,1671.845,807.633z"/>
		</g>
		<g>
			<defs>
				<path id="XMLID_00000089572053452975041000000010347557422868545469_" d="M1832.384,1175.256
					c-17.202-93.804-93.223-115.29-177.519-109.75v-0.05c-0.609,0.025-1.839,0.023-2.449,0v0.051
					c-82.961-5.967-158.863,18.151-175.082,109.753c-0.001-0.004-35.132,304.524-35.132,304.524
					c196.276,56.694,229.736,53.342,425.313,0L1832.384,1175.256z"/>
			</defs>
			<use xlink:href="#XMLID_00000089572053452975041000000010347557422868545469_"  style="overflow:visible;fill:#4292F3;"/>
			<clipPath id="XMLID_00000168829219687981543290000002638462216861483666_">
				<use xlink:href="#XMLID_00000089572053452975041000000010347557422868545469_"  style="overflow:visible;"/>
			</clipPath>
			<path style="clip-path:url(#XMLID_00000168829219687981543290000002638462216861483666_);fill:#3C7ED7;" d="M1466.788,1332.065
				c72.186,39.997,229.198,135.105,349.429,120.603c-179.423,93.196-168.033,94.051-355.98,20.588L1466.788,1332.065z"/>
		</g>
		<g>
			<path style="fill:#F4D2C6;" d="M1585.469,1066.912c8.512,57.08,130.425,56.831,138.78,0
				C1724.249,1066.912,1653.409,1061.907,1585.469,1066.912z"/>
			<g>
				<path style="fill:#FFFFFF;" d="M1654.851,1110.089l-43.755,43.623c0,0-44.501-27.407-37.31-84.436l11.682-2.363
					L1654.851,1110.089z"/>
				<path style="fill:#FFFFFF;" d="M1654.851,1110.089l43.755,43.623c0,0,44.501-27.407,37.31-84.436l-11.682-2.363
					L1654.851,1110.089z"/>
			</g>
		</g>
		<path style="fill:#EDA19D;" d="M1430.037,1237.941c-3.202,65.651-51.75,177.431,51.993,188.249l-8.404-158.245L1430.037,1237.941z
			"/>
		<path style="fill:#EDA19D;" d="M1873.694,1242.216c4.151,68.2,50.164,175.8-52.241,192.917l8.651-162.913L1873.694,1242.216z"/>
		<g>
			<path style="fill:#EDA19D;" d="M1572.068,1558.335c0,0-33.754-20.936-51.544-15.441c-2.668,0.824-21.231,23.729-21.231,23.729
				l-63.038,23.873c-11.698,4.055-17.671,15.512-19.389,27.143h159.77L1572.068,1558.335z"/>
			<path style="fill:#2A437D;" d="M1567.797,1545.274c0,0,280.703-155.422,380.69-141.788
				c99.986,13.635,104.364,152.797,18.012,182.339c-86.352,29.541-393.128,31.814-393.128,31.814L1567.797,1545.274z"/>
			<path style="fill:#324D90;" d="M1741.906,1545.274c0,0-280.703-155.422-380.69-141.788
				c-99.986,13.635-104.364,152.797-18.012,182.339s393.128,31.814,393.128,31.814L1741.906,1545.274z"/>
			<path style="fill:#F4D2C6;" d="M1740.9,1558.335c0,0,33.754-20.936,51.544-15.441c2.668,0.824,21.231,23.729,21.231,23.729
				l63.038,23.873c11.698,4.055,17.671,15.512,19.388,27.143h-159.77L1740.9,1558.335z"/>
		</g>
		<g>
			<g>
				<g>
					<polygon style="fill:#F9CE68;" points="1435.012,1134.154 1631.619,1216.838 1631.619,1440.818 1435.012,1354.994 					"/>
					<polygon style="fill:#F9CE68;" points="1867.029,1134.154 1670.422,1216.838 1670.422,1440.818 1867.029,1354.994 					"/>
					<rect x="1631.619" y="1216.838" style="fill:#F08F3C;" width="38.803" height="223.98"/>
				</g>
				<polygon style="fill:#FFFFFF;" points="1448.365,1139.77 1493.569,1129.425 1650.151,1196.219 1631.619,1216.838 				"/>
				<polygon style="fill:#FFFFFF;" points="1650.151,1196.219 1670.422,1216.838 1848.822,1141.811 1816.186,1129.467 				"/>
				<polygon style="fill:#DCECFD;" points="1650.151,1196.219 1631.619,1216.838 1670.422,1216.838 				"/>
			</g>
			<path style="fill:#F4D2C6;" d="M1866.122,1213.885c-14.174,8.596-42.634,17.348-44.022,37.347l0,0
				c-4.558,23.804,22.796,44.446,44.581,34.422c4.583-4.339,9.622-9.72,9.262-16.506c0,0,0-39.725,0-39.725
				C1875.944,1222.781,1872.121,1216.733,1866.122,1213.885L1866.122,1213.885z"/>
			<path style="fill:#F4D2C6;" d="M1435.033,1213.885c14.173,8.596,42.634,17.348,44.022,37.347l0,0
				c4.558,23.803-22.796,44.447-44.581,34.422c-4.583-4.343-9.622-9.717-9.262-16.506c-0.001,0-0.001-39.725-0.001-39.725
				C1425.21,1222.781,1429.034,1216.733,1435.033,1213.885z"/>
		</g>
	</g>
	<g>
		<path style="fill:#FFFFFF;" d="M1962.03,694.85c-105.868-0.475-197.388,71.29-131.006,146.555
			c-23.59,103.957-18.288,72.29,67.994,37.652C2106.138,936.686,2228.473,713.956,1962.03,694.85z"/>
		<g>
			<path style="fill:#DCECFD;" d="M1902.111,789.764c-0.081,18.019-27.477,18.017-27.556-0.001
				C1874.637,771.745,1902.033,771.747,1902.111,789.764z"/>
			<path style="fill:#DCECFD;" d="M1982.342,789.764c-0.081,18.019-27.477,18.017-27.556-0.001
				C1954.867,771.745,1982.263,771.747,1982.342,789.764z"/>
			<path style="fill:#DCECFD;" d="M2062.572,789.764c-0.081,18.019-27.477,18.017-27.556-0.001
				C2035.097,771.745,2062.494,771.747,2062.572,789.764z"/>
		</g>
	</g>
	<g>
		<g>
			<g>
				<g>
					
						<rect x="2086.285" y="1390.983" transform="matrix(6.123234e-17 -1 1 6.123234e-17 782.9147 3572.3906)" style="fill:#152E60;" width="182.735" height="7.51"/>
					
						<rect x="2093.795" y="1390.983" transform="matrix(6.123234e-17 -1 1 6.123234e-17 790.4252 3579.9011)" style="fill:#324D90;" width="182.735" height="7.51"/>
					
						<rect x="2078.775" y="1390.983" transform="matrix(6.123234e-17 -1 1 6.123234e-17 775.4042 3564.8804)" style="fill:#324D90;" width="182.735" height="7.51"/>
				</g>
				<g>
					<defs>
						<polygon id="XMLID_00000178885166289879679750000005301302604877487745_" points="2166.387,1486.106 2176.387,1528.602 
							2188.918,1486.106 						"/>
					</defs>
					<use xlink:href="#XMLID_00000178885166289879679750000005301302604877487745_"  style="overflow:visible;fill:#FFFFFF;"/>
					<clipPath id="XMLID_00000018923974706328664520000010591913132019431341_">
						<use xlink:href="#XMLID_00000178885166289879679750000005301302604877487745_"  style="overflow:visible;"/>
					</clipPath>
					
						<rect x="2166.735" y="1514.203" transform="matrix(6.123234e-17 -1 1 6.123234e-17 655.2283 3696.9775)" style="clip-path:url(#XMLID_00000018923974706328664520000010591913132019431341_);fill:#152E60;" width="18.736" height="13.342"/>
				</g>
				<g>
					
						<rect x="2165.487" y="1279.939" transform="matrix(6.123234e-17 -1 1 6.123234e-17 886.4484 3468.8569)" style="fill:#F9CE68;" width="24.332" height="22.531"/>
					
						<rect x="2174.942" y="1284.526" transform="matrix(6.123234e-17 -1 1 6.123234e-17 881.8608 3473.4446)" style="fill:#F08F3C;" width="5.422" height="22.531"/>
					
						<rect x="2174.942" y="1275.333" transform="matrix(6.123234e-17 -1 1 6.123234e-17 891.0541 3464.2512)" style="fill:#F08F3C;" width="5.422" height="22.531"/>
				</g>
				<path style="fill:#FFFFFF;" d="M2188.918,1276.482v2.556h-22.531c-0.902-7.018,3.849-13.889,11.266-13.822
					C2183.875,1265.217,2188.918,1270.261,2188.918,1276.482z"/>
			</g>
			<g>
				<g>
					
						<rect x="2127.816" y="1391.05" transform="matrix(0.2475 -0.9689 0.9689 0.2475 318.6046 3199.8147)" style="fill:#F08F3C;" width="182.735" height="7.51"/>
					
						<rect x="2135.094" y="1392.909" transform="matrix(0.2475 -0.9689 0.9689 0.2475 322.2801 3208.2639)" style="fill:#F9CE68;" width="182.735" height="7.51"/>
					
						<rect x="2120.54" y="1389.192" transform="matrix(0.2475 -0.9689 0.9689 0.2475 314.9301 3191.3665)" style="fill:#F9CE68;" width="182.735" height="7.51"/>
				</g>
				<g>
					<defs>
						<polygon id="XMLID_00000057150533644919181970000017799179194010463653_" points="2185.659,1480.544 2184.832,1524.193 
							2207.49,1486.119 						"/>
					</defs>
					<use xlink:href="#XMLID_00000057150533644919181970000017799179194010463653_"  style="overflow:visible;fill:#FFFFFF;"/>
					<clipPath id="XMLID_00000074430356894426816740000012143201529657956999_">
						<use xlink:href="#XMLID_00000057150533644919181970000017799179194010463653_"  style="overflow:visible;"/>
					</clipPath>
					
						<rect x="2177.101" y="1509.964" transform="matrix(0.2475 -0.9689 0.9689 0.2475 175.9507 3259.8069)" style="clip-path:url(#XMLID_00000074430356894426816740000012143201529657956999_);fill:#152E60;" width="18.736" height="13.342"/>
				</g>
				<g>
					
						<rect x="2232.638" y="1283.226" transform="matrix(0.2475 -0.9689 0.9689 0.2475 435.0791 3149.1484)" style="fill:#324D90;" width="24.332" height="22.531"/>
					
						<rect x="2240.958" y="1287.671" transform="matrix(0.2475 -0.9689 0.9689 0.2475 429.9171 3151.3923)" style="fill:#152E60;" width="5.422" height="22.531"/>
					
						<rect x="2243.233" y="1278.764" transform="matrix(0.2475 -0.9689 0.9689 0.2475 440.2596 3146.8933)" style="fill:#152E60;" width="5.422" height="22.531"/>
				</g>
				<path style="fill:#FFFFFF;" d="M2259.363,1283.016l-0.633,2.476l-21.831-5.575
					C2238.784,1263.545,2262.638,1266.814,2259.363,1283.016z"/>
			</g>
			<g>
				<defs>
					<path id="XMLID_00000132082042409870933040000000029182133593098650_" d="M2218.972,1617.638
						c-208.053,0.542-141.598,25.541-152.524-226.458h181.392v197.59C2247.84,1604.714,2234.916,1617.638,2218.972,1617.638z"/>
				</defs>
				<use xlink:href="#XMLID_00000132082042409870933040000000029182133593098650_"  style="overflow:visible;fill:#FFFFFF;"/>
				<clipPath id="XMLID_00000164511376113894643250000011271778341165558964_">
					<use xlink:href="#XMLID_00000132082042409870933040000000029182133593098650_"  style="overflow:visible;"/>
				</clipPath>
			</g>
			<g>
				<rect x="2082.556" y="1208.155" style="fill:#BEDBFA;" width="59.936" height="183.025"/>
				<g>
					<rect x="2082.556" y="1232.212" style="fill:#DCECFD;" width="22.778" height="8.646"/>
					<rect x="2082.556" y="1251.968" style="fill:#DCECFD;" width="22.778" height="8.646"/>
					<rect x="2082.556" y="1271.724" style="fill:#DCECFD;" width="22.778" height="8.646"/>
					<rect x="2082.556" y="1291.48" style="fill:#DCECFD;" width="22.778" height="8.646"/>
					<rect x="2082.556" y="1311.236" style="fill:#DCECFD;" width="22.778" height="8.646"/>
					<rect x="2082.556" y="1330.992" style="fill:#DCECFD;" width="22.778" height="8.646"/>
					<rect x="2082.556" y="1350.749" style="fill:#DCECFD;" width="22.778" height="8.646"/>
					<rect x="2082.556" y="1370.505" style="fill:#DCECFD;" width="22.778" height="8.646"/>
				</g>
				<rect x="2132.92" y="1218.349" style="fill:#FFFFFF;" width="9.572" height="172.831"/>
			</g>
		</g>
		<rect x="2066.448" y="1422.758" style="fill:#BEDBFA;" width="181.392" height="21.779"/>
		<rect x="2066.448" y="1462.322" style="fill:#BEDBFA;" width="181.392" height="21.779"/>
	</g>
	<g>
		<g>
			<path style="fill:#FFFFFF;" d="M388.089,831.391c0,0,141.165,310.487,171.964,535.206h31.824
				C591.876,1366.598,526.496,1065.421,388.089,831.391z"/>
			<path style="fill:#BEDBFA;" d="M407.349,871.426c0,0-35.957-24.97,0-83.9c47.917-146.942-264.858-57.769-166.802,186.778
				l59.929-55.934c-72.671,114.165-31.831,145.086,13.983,244.709l46.944-43.948c0,0-32.961,57.931-31.962,64.923
				s70.916,100.88,70.916,100.88s147.824-207.753,149.822-218.74c1.998-10.987-82.902-84.899-82.902-84.899l98.882,66.92
				c11.827-48.691,73.064-229.154-54.935-245.708c0,0,44.947,2.996,69.917,17.979c0,0-8.989-92.89-80.904-84.899
				c-71.915,7.991-59.929,51.938-61.926,80.904C436.315,845.457,407.349,871.426,407.349,871.426z"/>
			<path style="fill:#BEDBFA;" d="M769.061,778.069c0,0-19.714-17.962-8.762-41.618c49.133-134.176-160.268-143.686-150.263,88.931
				l55.637-18.4c0,0-46.437,38.113-47.751,61.77c-1.314,23.657,68.779,172.167,68.779,172.167l31.104-37.237
				c0,0-17.523,48.189-15.771,55.199c1.752,7.009,59.141,72.722,59.141,72.722s68.779-95.941,69.217-103.388
				c0.438-7.447-41.18-58.265-41.18-58.265l58.703,40.304c0,0,75.351-99.445,74.912-116.969
				c-0.438-17.523-68.779-70.532-68.779-70.532l75.351,40.304c0,0,7.009-69.217-7.009-101.198l-65.275-26.285l61.77,14.457
				c0,0-26.723-94.626-56.951-99.883c-30.228-5.257-81.046,58.265-80.169,86.741C782.641,765.364,769.061,778.069,769.061,778.069z"
				/>
			<path style="fill:#FFFFFF;" d="M560.052,1366.598c0,0,29.297-353.032,209.008-588.529c0,0-161.82,331.739-177.185,588.529
				H560.052z"/>
		</g>
		<path style="fill:#BEDBFA;" d="M576.375,1366.598h-162.18l47.399,228.006c2.48,11.931,12.993,20.483,25.18,20.483h89.601h89.601
			c12.186,0,22.699-8.552,25.18-20.483l47.399-228.006H576.375z"/>
	</g>
	<g>
		<g>
			<polygon style="fill:#F08F3C;" points="2352.775,1620.1 2332.154,1620.1 2396.497,1512.851 2417.119,1512.851 			"/>
			<polygon style="fill:#F08F3C;" points="2541.626,1620.1 2562.248,1620.1 2497.905,1512.851 2477.283,1512.851 			"/>
		</g>
		<g>
			<path style="fill:#324D90;" d="M2394.733,1271.068l-15.479,8.094l-38.496-73.622c-2.235-4.274-0.582-9.551,3.693-11.786
				s9.551-0.582,11.786,3.693L2394.733,1271.068z"/>
			<g>
				<defs>
					<path id="XMLID_00000148650021076328230340000006876767110869146796_" d="M2409.54,1221.756
						c-27.334-51.701-106.088-10.482-79.232,41.429L2409.54,1221.756z"/>
				</defs>
				<use xlink:href="#XMLID_00000148650021076328230340000006876767110869146796_"  style="overflow:visible;fill:#F08F3C;"/>
				<clipPath id="XMLID_00000051348805229367530350000007273008105297810086_">
					<use xlink:href="#XMLID_00000148650021076328230340000006876767110869146796_"  style="overflow:visible;"/>
				</clipPath>
				<path style="clip-path:url(#XMLID_00000051348805229367530350000007273008105297810086_);fill:#F9CE68;" d="M2387.093,1195.672
					c0,0-23.711,45.333-63.854,65.755C2292.858,1211.123,2352.788,1186.604,2387.093,1195.672z"/>
			</g>
		</g>
		<g>
			<path style="fill:#324D90;" d="M2533.655,1273.057l-16.668-5.222l24.838-79.279c1.442-4.603,6.343-7.165,10.946-5.723
				c4.603,1.442,7.165,6.343,5.723,10.945L2533.655,1273.057z"/>
			<g>
				<defs>
					<path id="XMLID_00000183940954319361294010000011166412058401735072_" d="M2578.994,1248.658
						c17.23-55.886-67.604-82.427-85.32-26.731L2578.994,1248.658z"/>
				</defs>
				<use xlink:href="#XMLID_00000183940954319361294010000011166412058401735072_"  style="overflow:visible;fill:#F08F3C;"/>
				<clipPath id="XMLID_00000124857290755923636780000016294808728067868044_">
					<use xlink:href="#XMLID_00000183940954319361294010000011166412058401735072_"  style="overflow:visible;"/>
				</clipPath>
				<path style="clip-path:url(#XMLID_00000124857290755923636780000016294808728067868044_);fill:#F9CE68;" d="M2581.566,1214.342
					c0,0-48.821,15.289-91.647,1.344C2504.007,1158.632,2563.721,1183.672,2581.566,1214.342z"/>
			</g>
		</g>
		<g>
			<path style="fill:#F08F3C;" d="M2464.461,1549.964c-203.603-3.651-203.57-306.227,0.007-309.848
				C2668.063,1243.767,2668.031,1546.342,2464.461,1549.964z"/>
			<path style="fill:#F9CE68;" d="M2445.449,1549.964c-203.603-3.651-203.57-306.227,0.007-309.848
				C2649.052,1243.766,2649.02,1546.342,2445.449,1549.964z"/>
			<g>
				<defs>
					<path id="XMLID_00000178889797702159699540000009554610390113373598_" d="M2573.097,1395.04
						c-2.866,167.793-252.454,167.766-255.295-0.005C2320.667,1227.247,2570.255,1227.273,2573.097,1395.04z"/>
				</defs>
				<use xlink:href="#XMLID_00000178889797702159699540000009554610390113373598_"  style="overflow:visible;fill:#FFFFFF;"/>
				<clipPath id="XMLID_00000036244046631934118440000010006173125645381273_">
					<use xlink:href="#XMLID_00000178889797702159699540000009554610390113373598_"  style="overflow:visible;"/>
				</clipPath>
				<path style="opacity:0.67;clip-path:url(#XMLID_00000036244046631934118440000010006173125645381273_);fill:#DCECFD;" d="
					M2516.832,1267.392c69.688,158.535-110.284,252.069-222.885,167.416C2399.649,1686.992,2747.366,1458.138,2516.832,1267.392z"/>
			</g>
			<polygon style="fill:#324D90;" points="2450.207,1308.599 2439.807,1368.761 2450.207,1390.143 2460.607,1368.761 			"/>
			<polygon style="fill:#324D90;" points="2507.132,1417.711 2474.918,1394.021 2458.359,1398.737 2467.377,1413.405 			"/>
			<path style="fill:#152E60;" d="M2467.135,1394.021c-0.38,22.252-33.48,22.249-33.857-0.001
				C2433.659,1371.768,2466.759,1371.771,2467.135,1394.021z"/>
			<g>
				<path style="fill:#324D90;" d="M2447.066,1505.312c-1.961-0.058-3.941-0.187-5.877-0.332l0.771-9.972
					c1.727,0.133,3.49,0.236,5.241,0.306C2447.039,1497.731,2447.016,1502.864,2447.066,1505.312z M2466.174,1503.666l-1.714-9.853
					c1.722-0.3,3.451-0.646,5.141-1.032l2.221,9.752C2469.966,1502.957,2468.066,1503.338,2466.174,1503.666z M2422.37,1502.223
					c-1.868-0.411-3.742-0.87-5.567-1.361l2.6-9.658c1.678,0.452,3.401,0.873,5.12,1.252L2422.37,1502.223z M2490.091,1496.663
					l-3.875-9.22c1.602-0.673,3.205-1.397,4.769-2.152l4.35,9.006C2493.616,1495.127,2491.852,1495.923,2490.091,1496.663z
					 M2398.785,1494.402c-1.744-0.797-3.486-1.647-5.177-2.529l4.624-8.868c1.537,0.802,3.121,1.576,4.708,2.3L2398.785,1494.402z
					 M2511.82,1484.499l-5.83-8.126c1.412-1.013,2.816-2.077,4.177-3.164l6.244,7.813
					C2514.916,1482.217,2513.372,1483.387,2511.82,1484.499z M2377.441,1481.473c-1.518-1.186-3.015-2.427-4.454-3.687l6.594-7.521
					c1.297,1.137,2.649,2.257,4.02,3.329L2377.441,1481.473z M2530.314,1467.813l-7.485-6.633c1.158-1.306,2.294-2.657,3.377-4.015
					l7.817,6.239C2532.833,1464.896,2531.585,1466.379,2530.314,1467.813z M2359.759,1463.814c-1.185-1.51-2.345-3.074-3.447-4.65
					l8.197-5.73c0.996,1.425,2.045,2.84,3.116,4.205L2359.759,1463.814z M2544.66,1447.438l-8.771-4.807
					c0.837-1.528,1.646-3.098,2.403-4.667l9.009,4.344C2546.469,1444.032,2545.58,1445.759,2544.66,1447.438z M2346.761,1442.495
					c-0.8-1.736-1.566-3.519-2.276-5.298l9.289-3.708c0.646,1.619,1.343,3.24,2.071,4.818L2346.761,1442.495z M2554.107,1424.361
					l-9.623-2.725c0.471-1.665,0.906-3.373,1.294-5.076l9.752,2.214C2555.105,1420.648,2554.627,1422.528,2554.107,1424.361z
					 M2338.906,1418.864c-0.402-1.869-0.763-3.77-1.071-5.651l9.87-1.617c0.281,1.719,0.611,3.456,0.978,5.163L2338.906,1418.864z
					 M2558.148,1399.776l-9.989-0.511c0.094-1.819,0.138-3.671,0.134-5.501h10.001
					C2558.298,1395.763,2558.25,1397.786,2558.148,1399.776z M2346.274,1394.137h-10.001c-0.002-1.9,0.042-3.828,0.132-5.738
					l9.99,0.471C2346.313,1390.623,2346.272,1392.393,2346.274,1394.137z M2546.763,1376.379c-0.303-1.722-0.653-3.451-1.041-5.138
					l9.747-2.24c0.426,1.854,0.811,3.754,1.144,5.647L2546.763,1376.379z M2348.635,1371.498l-9.783-2.081
					c0.4-1.876,0.85-3.759,1.338-5.596l9.666,2.57C2349.411,1368.066,2349,1369.785,2348.635,1371.498z M2540.352,1354.636
					c-0.675-1.598-1.402-3.201-2.16-4.765l8.998-4.365c0.835,1.719,1.633,3.482,2.375,5.239L2540.352,1354.636z M2355.748,1349.936
					l-9.092-4.164c0.796-1.74,1.65-3.48,2.536-5.174l8.861,4.638C2357.247,1346.774,2356.472,1348.355,2355.748,1349.936z
					 M2529.245,1334.882c-1.014-1.409-2.081-2.812-3.171-4.171l7.803-6.257c1.197,1.493,2.37,3.036,3.485,4.585L2529.245,1334.882z
					 M2367.475,1330.592l-7.885-6.152c1.183-1.517,2.422-3.017,3.681-4.457l7.53,6.583
					C2369.664,1327.867,2368.545,1329.221,2367.475,1330.592z M2514.023,1318.071c-1.306-1.153-2.658-2.287-4.021-3.371l6.226-7.827
					c1.496,1.19,2.982,2.435,4.416,3.702L2514.023,1318.071z M2383.406,1314.597l-6.18-7.863c1.506-1.184,3.067-2.342,4.639-3.443
					l5.736,8.193C2386.178,1312.48,2384.768,1313.527,2383.406,1314.597z M2495.45,1305.045c-1.534-0.836-3.106-1.642-4.673-2.395
					l4.33-9.016c1.721,0.827,3.448,1.712,5.133,2.631L2495.45,1305.045z M2402.715,1302.836l-4.177-9.088
					c1.725-0.793,3.505-1.556,5.291-2.268l3.704,9.29C2405.906,1301.419,2404.285,1302.114,2402.715,1302.836z M2474.442,1296.489
					c-1.674-0.47-3.383-0.902-5.082-1.284l2.198-9.757c1.867,0.421,3.747,0.896,5.587,1.412L2474.442,1296.489z M2424.28,1295.636
					l-2.175-9.761c1.847-0.412,3.735-0.788,5.612-1.12l1.739,9.849C2427.723,1294.909,2425.981,1295.256,2424.28,1295.636z
					 M2452.063,1292.853c-1.668-0.078-3.368-0.13-5.05-0.12v-0.004c-0.003,0-0.006,0-0.009,0c0.017-0.199-0.401-9.773-0.401-9.989
					c1.981-0.037,3.986,0.036,5.952,0.124L2452.063,1292.853z"/>
			</g>
		</g>
	</g>
	<path style="fill:#152E60;" d="M317.027,1617.638c825.738-5.792,1671.492-5.839,2497.231-0.001
		C1988.52,1623.477,1142.766,1623.43,317.027,1617.638L317.027,1617.638z"/>
</g>
</svg>
