<?xml version="1.0" encoding="utf-8"?>
<!-- Generator: Adobe Illustrator 27.5.0, SVG Export Plug-In . SVG Version: 6.00 Build 0)  -->
<svg version="1.1" xmlns="http://www.w3.org/2000/svg" xmlns:xlink="http://www.w3.org/1999/xlink" x="0px" y="0px"
	 viewBox="0 0 3000 2000" style="enable-background:new 0 0 3000 2000;" xml:space="preserve">
<g id="BACKGROUND">
	<rect style="fill:none;" width="3000" height="2000"/>
</g>
<g id="OBJECTS">
	<g>
		<g>
			<path style="opacity:0.6;fill:#EDF2FF;" d="M2689.487,1484.431H1860c0,0-400.769-9.3-423.492,54.319H320.291
				c-210.956-408.627,239.001-600.535,238.417-716.25c-0.004-0.79-0.006-1.58-0.006-2.37c0-282.756,255.303-511.953,570.185-511.953
				c33.008,0,65.361,2.518,96.832,7.352c97.501,14.977,196.637-9.304,276.319-69.737c74.683-56.642,165.159-89.793,262.665-89.793
				c182.48,0,340.386,116.137,416.234,285.067c50.722,112.97,149.98,193.776,267.568,217.081
				c198.977,39.435,360.815,176.304,410.419,373.258C2898.476,1188.529,2815.249,1407.708,2689.487,1484.431z"/>
			<path style="opacity:0.6;fill:#EDF2FF;" d="M1251.192,255.033c-9.421-18.426,10.825-35.213,28.611-44.294
				c19.213-9.81,103.779-12.263,113.312,13.28c8.111,21.731-9.641,48.427-39.649,59.628c-28.694,10.711-72.284,1.461-94.651-19.024
				C1255.294,261.398,1252.807,258.191,1251.192,255.033z"/>
			<path style="opacity:0.6;fill:#EDF2FF;" d="M184.481,865.54c-20.655-42.155,17.486-77.368,51.621-95.66
				c36.874-19.76,203.683-15.865,225.347,42.182c18.432,49.384-13.683,106.982-71.732,128.651
				c-55.505,20.719-142.653-4.748-189.113-52.931C193.291,880.197,188.022,872.766,184.481,865.54z"/>
			<path style="opacity:0.6;fill:#EDF2FF;" d="M1592.109,1718.854c-36.857-75.321,30.846-138.064,91.478-170.613
				c65.498-35.16,362.089-27.679,400.791,76.016c32.927,88.221-23.991,190.945-127.13,229.446
				c-98.62,36.814-253.645-8.927-336.402-95.09C1607.819,1745.048,1598.428,1731.766,1592.109,1718.854z"/>
		</g>
		<g>
			<g>
				<g>
					<path style="fill:#FFFFFF;" d="M1054,398l-30.977-53.507c11.456-17.945,18.123-39.244,18.123-62.113
						c0-63.855-51.765-115.62-115.62-115.62c-63.855,0-115.62,51.765-115.62,115.62S861.671,398,925.526,398
						c27.198,0,52.183-9.415,71.928-25.132L1054,398z"/>
					<path style="fill:#102048;" d="M1058.818,402.33l-61.074-27.145C976.922,391.423,951.977,400,925.526,400
						c-64.856,0-117.62-52.764-117.62-117.62c0-64.855,52.764-117.62,117.62-117.62c64.855,0,117.619,52.764,117.619,117.62
						c0,22.039-6.146,43.502-17.786,62.158L1058.818,402.33z M925.526,168.76c-62.65,0-113.62,50.97-113.62,113.62
						c0,62.65,50.97,113.62,113.62,113.62c25.943,0,50.384-8.54,70.682-24.697l0.949-0.755l52.024,23.122l-28.5-49.228l0.655-1.025
						c11.65-18.249,17.809-39.355,17.809-61.037C1039.146,219.73,988.176,168.76,925.526,168.76z"/>
				</g>
				<g>
					<circle style="fill:#708CD5;" cx="865.362" cy="286.333" r="15"/>
					<circle style="fill:#708CD5;" cx="925.362" cy="286.333" r="15"/>
					<circle style="fill:#708CD5;" cx="985.362" cy="286.333" r="15"/>
				</g>
			</g>
			<g>
				<rect x="760.637" y="517.866" style="fill:#FFFFFF;" width="931.374" height="554.333"/>
				<rect x="760.637" y="515.934" style="fill:#C6EAE9;" width="931.374" height="118.188"/>
				<path style="fill:#102048;" d="M1693.943,1074.13H758.705V515.934h935.239V1074.13z M762.569,1070.266h927.51V519.798h-927.51
					V1070.266z"/>
				<path style="fill:#102048;" d="M833.875,604.235c-16.106,0-29.208-13.103-29.208-29.208c0-16.105,13.102-29.208,29.208-29.208
					c16.105,0,29.207,13.103,29.207,29.208C863.082,591.133,849.979,604.235,833.875,604.235z M833.875,549.82
					c-13.9,0-25.208,11.308-25.208,25.208c0,13.899,11.308,25.208,25.208,25.208c13.899,0,25.207-11.308,25.207-25.208
					C859.082,561.128,847.774,549.82,833.875,549.82z"/>
			</g>
			<g>
				<g>
					
						<ellipse transform="matrix(0.7071 -0.7071 0.7071 0.7071 185.2021 1340.4495)" style="fill:#FFFFFF;" cx="1710.667" cy="446.666" rx="142.667" ry="142.667"/>
					<path style="fill:#102048;" d="M1710.667,591.333c-79.77,0-144.667-64.897-144.667-144.667S1630.897,302,1710.667,302
						s144.666,64.897,144.666,144.666S1790.437,591.333,1710.667,591.333z M1710.667,306C1633.103,306,1570,369.102,1570,446.666
						c0,77.564,63.103,140.667,140.667,140.667c77.563,0,140.666-63.103,140.666-140.667C1851.333,369.102,1788.23,306,1710.667,306
						z"/>
				</g>
				<polygon style="fill:#102048;" points="1709.775,449.514 1651.212,387.371 1654.122,384.628 1710.709,444.673 1764.659,419.685 
					1766.341,423.315 				"/>
				<rect x="1708" y="548" style="fill:#102048;" width="8" height="22"/>
				<rect x="1708" y="328.666" style="fill:#102048;" width="8" height="22"/>
				<rect x="1809" y="442.666" style="fill:#102048;" width="22" height="8"/>
				<rect x="1590.333" y="442.666" style="fill:#102048;" width="22" height="8"/>
			</g>
			<g>
				<path style="fill:#102048;" d="M1388,610.258l-91.32-7.32l-93.36-5.32l-59-5.8l-0.32-35.36c0,0-11.6,19.24-19.88,33.36
					l-29.44-2.88c-23.36-32-12.68-54,11.32-66.68c24.6-12.96-14-60,24-80c0,0,30.88-11.36,39.32-28.64
					c14-28.68,39.36-89.359,113.999-54.001c2.191,1.038,10.289-1.45,12.811-1.576c10.097-0.504,20.354,0.52,30.046,3.454
					c12.735,3.855,24.158,11.093,32.845,21.202c15.32,17.828,14.203,43.263,30.533,60.39c7.76,8.139,16.612,16.995,21.849,27.051
					c7.641,14.673,0.021,30.12-2.521,44.999c-3.289,19.254,8.763,33.773,10.416,52.374
					C1421.252,587.523,1407.804,602.499,1388,610.258z"/>
				<path style="fill:#F9B384;" d="M1178.48,660.938c12.52-35,19.28-81.08,14.52-140l110.52,39c0.24,1.56,0.48,3.12,0.72,4.68
					c3.36,21,8.8,43.72,16.04,64.24c5.16,14.6,11.24,28.12,18.2,39.08L1178.48,660.938z"/>
				<path style="fill:#E28B6D;" d="M1320.28,628.858c-35.2-14.28-65-36.96-89.28-68.4l73.24,4.16
					C1307.6,585.618,1313.04,608.338,1320.28,628.858z"/>
				<path style="fill:#F9B384;" d="M1342.96,503.778c2.84,12.84,3.887,26.105,0,37.52c-13.293,39.035-35.627,54.701-71.293,44.035
					c-15.506-4.637-35.787-13.795-47.547-24.915c-14.8-14.04-28.64-34.36-42.12-57.48l10.68-86.68l98-27.32l62,22.68l3.32,33.32
					l-18.68,41.32C1339.76,491.938,1341.64,497.858,1342.96,503.778z"/>
				<path style="fill:#102048;" d="M1354.5,470.938c-7-33.5-58.316-58.875-90-51.5c-18,52-56.5,73.5-92.5,56.167l0.667-30.667
					L1188,402.271l57.333-22.667l64-4.667l40,22L1366,427.605L1354.5,470.938z"/>
				<g>
					<path style="fill:#102048;" d="M1303.241,490.844c0.201,3.833,0.959,7.557,2.416,11.116c1.515,3.701,3.767,6.674,6.101,9.876
						c1.859,2.55,4.126,6.15,1.892,9.154c-1.791,2.408-5.206,3.389-7.973,4.062c-2.5,0.609-1.441,4.467,1.063,3.857
						c6.258-1.524,13.354-5.505,11.543-13.059c-1.027-4.284-4.395-7.356-6.663-10.97c-2.657-4.235-4.119-9.053-4.38-14.036
						C1307.107,488.283,1303.106,488.267,1303.241,490.844L1303.241,490.844z"/>
					<ellipse style="fill:#102048;" cx="1278.917" cy="489.938" rx="6.5" ry="9.75"/>
					<path style="fill:#102048;" d="M1331.059,491.853c-0.448,4.973-3.5,8.762-6.815,8.463c-3.315-0.299-5.639-4.573-5.191-9.545
						c0.449-4.973,3.5-8.762,6.815-8.463C1329.183,482.607,1331.507,486.881,1331.059,491.853z"/>
					<path style="fill:#102048;" d="M1306.905,547.627c-1.991,0-4.101-0.237-6.258-0.721c-8.15-1.827-14.943-6.609-18.169-12.793
						c-0.511-0.979-0.131-2.188,0.848-2.698c0.979-0.51,2.188-0.131,2.698,0.848c2.689,5.153,8.482,9.169,15.498,10.741
						c5.315,1.191,10.304,0.652,13.02-1.409c0.88-0.668,2.135-0.496,2.802,0.384s0.496,2.135-0.384,2.802
						C1314.492,546.653,1310.942,547.627,1306.905,547.627z"/>
					<path style="fill:#102048;" d="M1288.735,466.209c0.562,2.355-6.976,3.962-16.015,4.973
						c-9.039,1.011-16.338,2.082-16.718-1.313c-0.38-3.394,6.976-3.962,16.015-4.973S1287.88,462.625,1288.735,466.209z"/>
					<path style="fill:#102048;" d="M1307.91,465.003c-0.468,2.375,6.264,4.104,14.324,5.251c8.06,1.147,14.572,2.33,14.863-1.098
						c0.291-3.428-6.264-4.104-14.324-5.25C1314.714,462.758,1308.622,461.389,1307.91,465.003z"/>
					
						<ellipse transform="matrix(0.7536 -0.6573 0.6573 0.7536 -31.7564 951.3728)" style="opacity:0.4;fill:#FC8879;" cx="1253.106" cy="518.044" rx="19.606" ry="19.606"/>
					<path style="opacity:0.4;fill:#FC8879;" d="M1342.96,541.298c-8.08-2.4-13.96-9.88-13.96-18.76c0-8.88,5.88-16.36,13.96-18.76
						C1345.8,516.618,1345.96,529.618,1342.96,541.298z"/>
				</g>
				<g>
					<path style="fill:#F9B384;" d="M1160.066,483.79c-2.149,5.939-2.23,12.673,0.738,19.098
						c6.246,13.518,23.349,20.445,37.611,18.203c14.358-2.258,9.382-8.3,12.764-21.353c3.382-13.053-3.034-24.143-15.732-30.979
						C1180.679,460.807,1164.976,470.22,1160.066,483.79z"/>
					<path style="fill:#102048;" d="M1197.05,505.623c-1.1-13.082-11.849-23.074-25.057-22.898c-2.572,0.034-2.579,4.034,0,4
						c10.902-0.146,20.137,7.956,21.057,18.898C1193.264,508.17,1197.266,508.193,1197.05,505.623L1197.05,505.623z"/>
				</g>
				<path style="fill:#EE6F57;" d="M1032,1073.618l9.32-89.36l-4-14.52l-3.32-12.12l-115.56-54.96l44.48-135.44
					c13.2-40.32,45.2-71.68,85.76-84.08l105.32-32.2l17.64-23.52c2.84-3.8,6.36-6.88,10.36-9.2c7.48-4.36,16.56-5.16,25-3.16
					c32.04,7.56,63.44,12.96,91.24,5c13.64-3.92,28.76,0.12,36.84,11.8c0.56,0.8,1.08,1.68,1.6,2.52l16.84,29.56l35.12,16.2
					c46.2,10.52,81.2,48.4,88,95.32l43.36,298.16H1032z"/>
				<path style="fill:#6F3428;" d="M1145.32,922.938c0,0-34.64,114.68-113.32,150.68l9.32-89.36l-4-14.52L1145.32,922.938z"/>
				<g>
					<path style="fill:#F9B384;" d="M1279.422,835.598c2.691,4.055,7.778,13.161,3.902,19.735c-0.644,1.115-1.539,2.138-2.73,3.031
						c0,0-2.762,13.039-13.789,19.594c-45.134,26.833-93.058,11.42-93.058,11.42l-19.943-60.971l31.556-41.589l33.146-45.865
						c0,0,11.594-1.051,12.852,12.452c1.253,13.463-22.89,47.694-22.89,47.694c10.588-5.153,34.432-14.099,50.33-12.799
						c6.497,0.531,9.396,5.543,11.316,16.238c0.13,0.831,0.304,1.697,0.443,2.608c0,0,0.847,0.391,2.099,1.181
						c4.316,2.712,13.261,9.913,8.251,20.513c-0.724,1.486-1.683,3.038-2.996,4.669
						C1277.909,833.509,1278.516,834.288,1279.422,835.598z"/>
					<path style="fill:#E28B6D;" d="M1247.013,815.852c8.175-1.966,16.349-3.933,24.524-5.899c2.502-0.602,1.442-4.46-1.063-3.857
						c-8.175,1.966-16.349,3.933-24.524,5.899C1243.448,812.597,1244.508,816.455,1247.013,815.852L1247.013,815.852z"/>
					<path style="fill:#E28B6D;" d="M1253.032,841.428c8.833-1.667,17.667-3.333,26.5-5c2.526-0.477,1.457-4.333-1.063-3.857
						c-8.833,1.667-17.667,3.333-26.5,5C1249.442,838.047,1250.512,841.903,1253.032,841.428L1253.032,841.428z"/>
					<path style="fill:#E28B6D;" d="M1260.047,864.38c6.832-0.843,13.664-1.686,20.496-2.529c2.522-0.311,2.553-4.315,0-4
						c-6.832,0.843-13.664,1.686-20.496,2.529C1257.525,860.692,1257.494,864.695,1260.047,864.38L1260.047,864.38z"/>
				</g>
				<path style="fill:#EE6F57;" d="M1182.6,918.898l-37.28,4.04c0,0-94.64,100-157.32,97.32c-15.8-0.64-29.28-4.64-40.64-10.2
					c-31.96-15.64-46.72-53.12-35.64-86.92l6.72-20.48c54.16-38.16,125.16-65.16,194.88-82.4l29.36-19.56
					c5.36-3.56,12.68-1.08,14.68,5.04l33.48,100.36C1192.8,912.018,1188.8,918.218,1182.6,918.898z"/>
				<g>
					<path style="fill:#6F3428;" d="M1153.796,653.918c5.841,4.49,11.681,8.981,17.522,13.471c2.039,1.568,4.034-1.905,2.019-3.454
						c-5.841-4.49-11.681-8.981-17.522-13.471C1153.775,648.896,1151.781,652.369,1153.796,653.918L1153.796,653.918z"/>
					<path style="fill:#6F3428;" d="M1327.504,675.875c9.749,0.537,19.326-3.32,26.006-10.435c1.761-1.875-1.062-4.71-2.828-2.828
						c-6.012,6.403-14.412,9.746-23.178,9.263C1324.932,671.734,1324.94,675.734,1327.504,675.875L1327.504,675.875z"/>
					<path style="fill:#6F3428;" d="M1196.742,641.807c-5.48,9.157-7.902,19.849-6.803,30.471c0.262,2.535,4.265,2.562,4,0
						c-1.032-9.972,1.105-19.844,6.257-28.452C1201.521,641.612,1198.064,639.599,1196.742,641.807L1196.742,641.807z"/>
					<path style="fill:#6F3428;" d="M1216.697,645.061c-3.074,10.706-3.731,21.808-2.084,32.814c0.38,2.537,4.234,1.459,3.857-1.063
						c-1.537-10.272-0.78-20.713,2.084-30.687C1221.266,643.646,1217.407,642.587,1216.697,645.061L1216.697,645.061z"/>
					<path style="fill:#6F3428;" d="M1247.907,647.637c-1.345,10.443-0.806,20.972,1.506,31.241c0.565,2.51,4.422,1.448,3.857-1.063
						c-2.235-9.93-2.663-20.087-1.363-30.178C1252.235,645.091,1248.231,645.115,1247.907,647.637L1247.907,647.637z"/>
					<path style="fill:#6F3428;" d="M1279.911,647.765c2.236,10.564,0.678,21.586-4.371,31.128
						c-1.203,2.274,2.248,4.298,3.454,2.019c5.57-10.527,7.24-22.562,4.774-34.211
						C1283.235,644.184,1279.379,645.25,1279.911,647.765L1279.911,647.765z"/>
					<path style="fill:#6F3428;" d="M1310.503,649.935c-0.249,9.622-3.651,18.931-9.765,26.383c-1.62,1.975,1.194,4.821,2.828,2.828
						c6.812-8.303,10.658-18.462,10.936-29.211C1314.57,647.36,1310.57,647.362,1310.503,649.935L1310.503,649.935z"/>
					<path style="fill:#6F3428;" d="M1113.921,820.86c9.513-9.442,21.507-15.86,34.622-18.603c2.518-0.527,1.452-4.383-1.063-3.857
						c-13.756,2.878-26.416,9.735-36.387,19.632C1109.263,819.847,1112.091,822.676,1113.921,820.86L1113.921,820.86z"/>
					<path style="fill:#6F3428;" d="M1154.697,806.73c13.397,28.082,23.494,57.657,30.138,88.052c0.55,2.514,4.407,1.45,3.857-1.063
						c-6.719-30.737-16.996-60.612-30.542-89.007C1157.043,802.389,1153.593,804.416,1154.697,806.73L1154.697,806.73z"/>
					<path style="fill:#6F3428;" d="M1151.94,923.943c10.245-1.875,20.49-3.75,30.735-5.624c2.528-0.463,1.457-4.318-1.063-3.857
						c-10.245,1.875-20.49,3.75-30.735,5.624C1148.348,920.549,1149.419,924.405,1151.94,923.943L1151.94,923.943z"/>
					<path style="fill:#6F3428;" d="M1122.147,837.54c8.238-3.52,16.475-7.04,24.713-10.56c2.36-1.008,0.324-4.455-2.019-3.454
						c-8.237,3.52-16.475,7.04-24.712,10.56C1117.768,835.095,1119.804,838.542,1122.147,837.54L1122.147,837.54z"/>
					<path style="fill:#6F3428;" d="M1133.736,857.217c6.002-2.439,12.005-4.877,18.007-7.316c2.354-0.956,1.324-4.827-1.063-3.857
						c-6.002,2.439-12.005,4.877-18.007,7.316C1130.319,854.316,1131.349,858.187,1133.736,857.217L1133.736,857.217z"/>
					<path style="fill:#6F3428;" d="M1148.049,881.381c6.221-2.224,12.443-4.449,18.664-6.673c2.406-0.86,1.369-4.727-1.063-3.857
						c-6.221,2.224-12.443,4.449-18.664,6.674C1144.579,878.384,1145.616,882.25,1148.049,881.381L1148.049,881.381z"/>
					<path style="fill:#6F3428;" d="M1153.439,901.711c6.088-5.823,13.522-9.77,21.735-11.624c2.51-0.566,1.448-4.424-1.063-3.857
						c-8.862,2-16.938,6.376-23.5,12.653C1148.747,900.666,1151.578,903.492,1153.439,901.711L1153.439,901.711z"/>
					<path style="fill:#6F3428;" d="M995.487,860.316c25.546-13.805,53.171-23.436,81.75-28.568c2.53-0.454,1.458-4.31-1.063-3.857
						c-28.908,5.192-56.868,15.009-82.705,28.972C991.202,858.086,993.22,861.541,995.487,860.316L995.487,860.316z"/>
					<path style="fill:#6F3428;" d="M1067.538,772.965c-2.651,19.828-5.387,39.645-8.038,59.473c-0.34,2.543,3.663,2.518,4,0
						c2.651-19.828,5.387-39.644,8.038-59.473C1071.878,770.422,1067.875,770.447,1067.538,772.965L1067.538,772.965z"/>
					<path style="fill:#6F3428;" d="M1426.172,808.764c5.008,62.464,10.016,124.927,15.024,187.391
						c1.412,17.609,2.824,35.219,4.236,52.828c0.204,2.548,4.206,2.57,4,0c-5.008-62.464-10.016-124.928-15.024-187.391
						c-1.412-17.609-2.824-35.219-4.236-52.828C1429.968,806.215,1425.966,806.193,1426.172,808.764L1426.172,808.764z"/>
					<path style="fill:#6F3428;" d="M1429.278,797.376c6.388-14.877,9.422-30.916,8.731-47.105c-0.109-2.564-4.11-2.578-4,0
						c0.659,15.44-2.082,30.874-8.185,45.086C1424.82,797.697,1428.264,799.737,1429.278,797.376L1429.278,797.376z"/>
					<path style="fill:#6F3428;" d="M1435.978,789.602c3.972-4.912,7.943-9.824,11.915-14.736c1.604-1.984-1.209-4.831-2.828-2.828
						c-3.972,4.912-7.943,9.824-11.915,14.735C1431.545,788.758,1434.358,791.605,1435.978,789.602L1435.978,789.602z"/>
					<path style="fill:#6F3428;" d="M1282.143,1013.642c37.554-12.026,69.803-38.803,89.156-73.1
						c5.517-9.777,9.949-20.158,13.199-30.902c0.747-2.469-3.113-3.525-3.857-1.063c-11.122,36.768-36.748,68.532-69.83,87.922
						c-9.397,5.508-19.359,9.965-29.732,13.286C1278.638,1010.567,1279.682,1014.43,1282.143,1013.642L1282.143,1013.642z"/>
					<path style="fill:#6F3428;" d="M1285.435,990.373c10.76-10.777,19.033-23.693,24.41-37.935c0.91-2.411-2.955-3.453-3.857-1.063
						c-5.128,13.583-13.128,25.9-23.382,36.17C1280.786,989.369,1283.613,992.198,1285.435,990.373L1285.435,990.373z"/>
				</g>
				<path style="fill:#E28B6D;" d="M1191.439,522.584c5.412,13.508,13.969,25.491,25.134,34.846
					c1.961,1.643,4.805-1.173,2.828-2.828c-10.608-8.888-18.953-20.22-24.106-33.081
					C1194.35,519.16,1190.48,520.19,1191.439,522.584L1191.439,522.584z"/>
			</g>
		</g>
		<g>
			<g>
				<rect x="493.232" y="1187.734" style="fill:#FFFFFF;" width="970.737" height="616.589"/>
				<rect x="493.232" y="1187.734" style="fill:#C6EAE9;" width="970.737" height="106.839"/>
				<path style="fill:#102048;" d="M1465.969,1806.323H491.232v-620.59h974.737V1806.323z M495.232,1802.323h966.737v-612.59
					H495.232V1802.323z"/>
				<path style="fill:#102048;" d="M1384.025,1267.845c-15.453,0-28.025-12.572-28.025-28.025s12.572-28.024,28.025-28.024
					c15.453,0,28.024,12.571,28.024,28.024S1399.478,1267.845,1384.025,1267.845z M1384.025,1215.795
					c-13.248,0-24.025,10.777-24.025,24.024c0,13.248,10.777,24.025,24.025,24.025c13.247,0,24.024-10.777,24.024-24.025
					C1408.049,1226.572,1397.272,1215.795,1384.025,1215.795z"/>
			</g>
			<g>
				<rect x="520" y="1510.666" style="fill:#1F3C88;" width="428" height="294.667"/>
				<path style="fill:#F9B384;" d="M702.28,1333.737l182.356,4.035c-8.172-12.017-15.819-25.733-22.833-42.18
					c-8.702-20.514-16.329-45.317-22.237-76.577l-60.415-18.865l-67.25-21.051C718.995,1233.244,710.469,1314.648,702.28,1333.737z"
					/>
				<path style="fill:#E28B6D;" d="M778.571,1231.318c0,0,27.875,41.009,80.668,57.244c-8.702-20.514-13.766-38.287-19.674-69.548
					l-60.415-18.865L778.571,1231.318z"/>
				<path style="fill:#F9B384;" d="M879.08,1183.399c-3,31-26.32,62.32-63,61.68c-15.68-0.32-35.32-4.8-48.08-14.4l-53.32-40.32
					l-19.2-86.64l82.12-75.8l77.08,38.76c0,0,4,61.96,4,62c0.16,2.56,5.4,7.72,10.56,15.64c4.76,7.16,9.4,16.6,10.08,28.36
					C879.52,1176.199,879.44,1179.799,879.08,1183.399z"/>
				<path style="fill:#102048;" d="M819.071,1130.281c0.75,5.079,2.962,9.587,6.231,13.516c3.483,4.186,7.929,7.444,11.468,11.591
					c2.97,3.48,6.612,8.653,3.306,13.066c-2.755,3.677-7.876,5.294-12.112,6.43c-2.484,0.666-1.43,4.526,1.063,3.857
					c9.047-2.425,20.149-8.665,15.04-19.652c-2.735-5.882-8.014-10.242-12.613-14.617c-4.453-4.236-7.616-9.082-8.528-15.254
					C822.554,1126.68,818.699,1127.759,819.071,1130.281L819.071,1130.281z"/>
				<path style="fill:#102048;" d="M831.325,1190.765c-9.174,0.988-18.269-2.189-24.629-8.92c-1.772-1.875-4.596,0.957-2.828,2.828
					c7.011,7.42,17.313,11.184,27.458,10.092C833.857,1194.492,833.885,1190.489,831.325,1190.765L831.325,1190.765z"/>
				<path style="fill:#102048;" d="M789.054,1134.542c0.744,4.609,4.066,7.929,7.42,7.414c3.355-0.514,5.471-4.668,4.728-9.278
					s-4.066-7.929-7.42-7.414C790.427,1125.779,788.31,1129.933,789.054,1134.542z"/>
				<path style="fill:#102048;" d="M833.893,1132.295c1.15,4.377,4.665,7.281,7.851,6.485c3.186-0.796,4.836-4.99,3.686-9.367
					c-1.15-4.377-4.665-7.281-7.851-6.485C834.393,1123.724,832.742,1127.918,833.893,1132.295z"/>
				<path style="fill:#102048;" d="M825.818,1110.524c-0.127,1.646,5.245,3.382,11.998,3.877c6.753,0.495,11.838,1.288,12.458-2.085
					c0.731-3.978-5.245-3.382-11.998-3.877S825.945,1108.878,825.818,1110.524z"/>
				<path style="fill:#102048;" d="M803.713,1111.223c0.395,1.714-4.983,4.351-12.011,5.891s-12.254,3.142-13.441-0.314
					c-1.4-4.076,4.983-4.351,12.011-5.891S803.318,1109.509,803.713,1111.223z"/>
				<ellipse style="opacity:0.4;fill:#FC8879;" cx="771.859" cy="1170.689" rx="20.891" ry="20.372"/>
				<path style="opacity:0.4;fill:#FC8879;" d="M879.08,1183.399c-1.6,0.16-3.24,0.08-4.88-0.16c-11.4-1.68-19.24-12.04-17.52-23.2
					c1.12-7.28,6.08-13.04,12.56-15.72c4.76,7.16,9.4,16.6,10.08,28.36C879.52,1176.199,879.44,1179.799,879.08,1183.399z"/>
				<path style="fill:#102048;" d="M717,1154.999c-5-39,3.74-63.805,35-82.333c79.341,31.457,131.044,21.172,140.667-52.667
					c-26.604,10.394-47.954,12.344-78.955-5.094c-3.398-1.911-86.224-54.253-117.225,33.908c0,0-51.347,23.251-10.657,96.88
					L717,1154.999z"/>
				<path style="fill:#1F3C88;" d="M911.4,1327.679l95.737,36.004c62.501,23.505,97.257,90.321,80.62,154.991L1055,1645.999H468
					l-4-59l18.943-113.101c9.336-55.741,47.338-102.446,100.017-122.92l69.52-27.019l134.32-11.12L911.4,1327.679z"/>
				<g>
					<polygon style="fill:#D3DFFF;" points="665.494,1806.108 459.494,1806.108 369.494,1547.446 575.494,1547.446 					"/>
					<polygon style="opacity:0.6;fill:#708CD5;" points="582.051,1643.845 434.192,1643.845 412.927,1585.52 560.786,1585.52 					
						"/>
					<polygon style="opacity:0.6;fill:#708CD5;" points="592.717,1676.512 444.858,1676.512 439.593,1662.187 587.452,1662.187 
											"/>
					<polygon style="opacity:0.6;fill:#708CD5;" points="602.051,1704.512 454.192,1704.512 448.927,1690.187 596.786,1690.187 
											"/>
					<polygon style="opacity:0.3;fill:#708CD5;" points="611.384,1732.512 463.525,1732.512 458.26,1718.187 606.119,1718.187 					
						"/>
					<polygon style="opacity:0.3;fill:#708CD5;" points="620.717,1760.512 472.858,1760.512 467.593,1746.187 615.452,1746.187 
											"/>
					<polygon style="opacity:0.3;fill:#708CD5;" points="630.051,1788.512 482.192,1788.512 476.927,1774.187 624.786,1774.187 
											"/>
				</g>
				<path style="fill:#D3DFFF;" d="M786.8,1312.799v0.04l-40.28,60.48c-34.08-9.2-65.56-25.28-94.04-49.36l56.8-29.8
					c24.92,14.32,51.72,20,77.48,18.6C786.8,1312.799,786.8,1312.799,786.8,1312.799z"/>
				<path style="fill:#D3DFFF;" d="M911.4,1327.679c-23.32,22.48-52.8,37.4-88.48,44.72l-36.12-59.56v-0.04l0.04-0.04
					c26.2-1.36,51.32-10,72.4-24.2L911.4,1327.679z"/>
				<path style="fill:#102048;" d="M962,1479.999c-32,25-91,149-91,149s-191,24-231,64l12,48l207-11l107-38l43-133L962,1479.999z"/>
				<path style="fill:#F9B384;" d="M624.333,1690.666c-17.664-2.141-67.037-19.167-78.15-24.651
					c-2.556-1.261-4.617-1.076-6.243-0.226c-4.096,2.142-4.459,7.917-1.141,10.769c10.718,9.214,29.328,17.409,48.655,25.51
					c-28.644,0.525-71.823-19.285-76.972-6.642c-1.205,2.958,0.342,6.288,2.994,8.067c17.724,11.89,68.286,19.47,68.286,19.47
					l-0.851,3.731c-28.903,1.823-78.335-10.933-73.451,3.286c9.001,16.073,71.009,15.423,71.009,15.423l0.741,4.588
					c-22.076,0.698-45.859-0.866-45.552,9.19c0.243,7.952,57.658,12.138,57.658,12.138c39.534,20.793,76.962,3.513,76.962,3.513
					l17.465-57.048l-30.095-38.105l-31.667-42.079c0,0-10.796-0.76-11.731,11.806
					C611.315,1661.972,624.333,1690.666,624.333,1690.666z"/>
				<path style="fill:#1F3C88;" d="M1055,1645.999l-31.954,89.621c-14.501,40.672-53.902,72.132-97.046,70.379
					c-94.908,0.613-185.775-8.09-259.333-31.333c4.573-17.553,8.374-37.261,5.833-74.667c70.5-21,143.503-32.363,222.5-38
					l74.333-214L1055,1645.999z"/>
				<path style="fill:#102048;" d="M822.92,1372.399l-3.692-1.214c-15.829-5.207-27.273-19.026-29.439-35.548l-2.989-22.798
					L822.92,1372.399z"/>
				<path style="fill:#102048;" d="M786.8,1312.839l-5.886,30.166c-2.132,10.925-9.599,20.054-19.884,24.31l-14.51,6.004
					L786.8,1312.839z"/>
				<path style="fill:#F9B384;" d="M668.869,1158.317c-1.693,14.294,12.453,39.764,45.593,32.204
					c14.728-3.36,8.804-8.643,10.769-21.262c1.965-12.619-6.071-22.547-20.157-27.918
					C689.484,1135.397,670.37,1145.637,668.869,1158.317z"/>
				<path style="fill:#102048;" d="M680.873,1162.457c10.02-4.794,22.185-0.19,26.35,10.144c0.95,2.357,4.821,1.328,3.857-1.063
					c-5.175-12.837-19.695-18.529-32.226-12.534C676.533,1160.113,678.56,1163.563,680.873,1162.457L680.873,1162.457z"/>
				<path style="fill:#E28B6D;" d="M711.38,1192.634c11.412,12.834,24.324,24.227,38.44,34.006c2.121,1.469,4.123-1.996,2.019-3.454
					c-13.836-9.586-26.447-20.803-37.63-33.381C712.495,1187.878,709.674,1190.715,711.38,1192.634L711.38,1192.634z"/>
				<path style="fill:#102048;" d="M665.468,1777.928c44.333,14.113,90.292,22.493,136.638,26.211
					c13.265,1.064,26.557,1.747,39.859,2.116c2.575,0.072,2.573-3.928,0-4c-46.282-1.285-92.474-6.583-137.501-17.538
					c-12.765-3.106-25.416-6.662-37.934-10.647C664.073,1773.288,663.021,1777.149,665.468,1777.928L665.468,1777.928z"/>
				<path style="fill:#102048;" d="M686.135,1760.595c6.667,2.222,13.333,4.444,20,6.667c2.448,0.816,3.497-3.046,1.063-3.857
					c-6.667-2.222-13.333-4.444-20-6.667C684.751,1755.922,683.701,1759.783,686.135,1760.595L686.135,1760.595z"/>
				<path style="fill:#102048;" d="M690.68,1731.52c5.338-0.378,10.676-0.755,16.014-1.133c2.553-0.181,2.573-4.182,0-4
					c-5.338,0.378-10.676,0.755-16.014,1.133C688.127,1727.7,688.107,1731.702,690.68,1731.52L690.68,1731.52z"/>
				<path style="fill:#102048;" d="M697.311,1706.791c8.448-0.348,16.897-0.697,25.345-1.045c2.565-0.106,2.578-4.106,0-4
					c-8.448,0.348-16.897,0.697-25.345,1.045C694.746,1702.897,694.733,1706.897,697.311,1706.791L697.311,1706.791z"/>
				<path style="fill:#102048;" d="M962.907,1464.395c9.423-24.372,22.826-47.147,39.55-67.224c1.637-1.965-1.178-4.809-2.828-2.828
					c-17.196,20.643-30.89,43.931-40.578,68.989C958.121,1465.734,961.987,1466.774,962.907,1464.395L962.907,1464.395z"/>
				<path style="fill:#102048;" d="M536.534,1414.629c23.893,11.785,43.601,31.008,55.956,54.613
					c1.194,2.282,4.648,0.262,3.454-2.019c-12.641-24.151-32.942-43.989-57.391-56.048
					C536.253,1410.041,534.223,1413.489,536.534,1414.629L536.534,1414.629z"/>
				<path style="fill:#102048;" d="M600.112,1499.928c2.16,23.561,4.32,47.123,6.48,70.684c0.233,2.542,4.235,2.567,4,0
					c-2.16-23.561-4.32-47.123-6.48-70.684C603.878,1497.386,599.876,1497.361,600.112,1499.928L600.112,1499.928z"/>
			</g>
		</g>
		<g>
			<g>
				<rect x="1587.2" y="959.599" style="fill:#FFFFFF;" width="1041.08" height="652.72"/>
				<rect x="1587.2" y="959.599" style="fill:#C6EAE9;" width="1041.08" height="120.4"/>
				<path style="fill:#102048;" d="M2630.28,1614.319H1585.2v-656.72h1045.08V1614.319z M1589.2,1610.319h1037.08v-648.72H1589.2
					V1610.319z"/>
				<path style="fill:#102048;" d="M2538.151,1049.284c-16.258,0-29.484-13.227-29.484-29.484s13.227-29.485,29.484-29.485
					s29.485,13.227,29.485,29.485S2554.409,1049.284,2538.151,1049.284z M2538.151,994.315c-14.052,0-25.484,11.433-25.484,25.485
					c0,14.052,11.433,25.484,25.484,25.484c14.053,0,25.485-11.433,25.485-25.484
					C2563.637,1005.747,2552.204,994.315,2538.151,994.315z"/>
			</g>
			<g>
				<g>
					<path style="fill:#102048;" d="M2311.469,1205.356l-2.938-2.715c41.212-44.618,57.411-79.392,49.521-106.309
						c-5.194-17.72-21.192-32.394-48.91-44.859c-24.822-11.163-55.6-19.179-85.364-26.931c-7.045-1.834-14.329-3.731-21.299-5.613
						l1.043-3.861c6.952,1.877,14.228,3.771,21.264,5.604c61.347,15.977,124.782,32.497,137.105,74.535
						C2370.209,1123.588,2353.717,1159.617,2311.469,1205.356z"/>
					<path style="fill:#102048;" d="M1942.222,1146.248c-10.533-20.474-12.173-41.464-4.874-62.388
						c6.05-17.34,21.938-44.141,63.279-73.345c24.619-17.391,46.993-27.571,47.217-27.672l1.646,3.645
						c-0.878,0.397-88.021,40.353-108.368,98.697c-6.921,19.846-5.354,39.774,4.656,59.232L1942.222,1146.248z"/>
					<path style="fill:#102048;" d="M1982.667,1159.333c-52.667-44-21.333-114.667,71.333-180c-69.333-68-24-152.833,89-146.333
						c93.667,5.667,161,79.5,77.5,182c118.015,42.365,159.5,163.667,84.167,184.333L1982.667,1159.333z"/>
				</g>
				<path style="fill:#708CD5;" d="M2275.56,1489.519c-2.88,29.64-13.12,87.84-18.58,125.3h-306.04
					c-10.5-64.42-29.58-173.5-36.62-248.18c-4.08-43.36-5.52-87.12-1.64-127.96l364.64,5.32c2.48,30.64,3.88,59.96,4.44,88.12
					C2282.84,1389.199,2280.28,1441.399,2275.56,1489.519z"/>
				<path style="fill:#1F3C88;" d="M2272,1518.666c-56-59.333-40-226.667-40-226.667l49.76,40.12
					C2282.84,1389.199,2279.333,1472.666,2272,1518.666z"/>
				<g>
					<path style="fill:#F9B384;" d="M2506.509,1313.075l-0.125,1.091l-21.581,168.8c-8.677,28.303-19.863,51.606-34.384,68.403
						c-0.146,0.21-0.332,0.424-0.517,0.637c-25.46,29.137-65.683,32.507-95.88,15.54c-15.262-8.532-27.954-22.253-34.903-40.499
						l-56.536-148.298l43.573-63.913l77.843,10.496l11.121,39.513l47.019-75.326l3.54-5.656L2506.509,1313.075z"/>
					<path style="fill:#F9B384;" d="M2452.227,1236.808c8.166-17.294,24.277-82.654,25.652-95.904
						c0.316-3.048,1.665-4.817,3.369-5.809c4.294-2.499,9.755,0.477,10.449,5.128c2.245,15.026-0.957,36.646-4.654,58.867
						c16.879-25.756,23.582-76.377,38.031-73.822c3.38,0.598,5.524,3.912,5.624,7.343c0.667,22.93-21.388,73.265-21.388,73.265
						l3.881,1.363c18.208-25.248,34.908-77.518,45.047-64.934c9.466,17.391-26.63,73.425-26.63,73.425l3.75,3.301
						c13.275-19.682,25.47-42.212,34.442-36.175c7.095,4.774-21.973,59.399-21.973,59.399
						c-3.722,47.868-40.872,72.021-40.872,72.021l-61.895-16.778l-17.43-49.195l-20.146-52.9c0,0,5.49-10.256,17.457-3.911
						C2436.907,1197.837,2452.227,1236.808,2452.227,1236.808z"/>
					<path style="fill:#E28B6D;" d="M2397.776,1361.047c-18.492,25.54-30.994,55.219-36.347,86.293
						c-0.434,2.518,3.42,3.599,3.857,1.063c5.304-30.782,17.625-60.037,35.944-85.338
						C2402.741,1360.978,2399.273,1358.979,2397.776,1361.047L2397.776,1361.047z"/>
					<path style="fill:#E28B6D;" d="M2458.334,1242.742c14.808,3.673,26.473,16.935,27.918,32.188c0.241,2.541,4.243,2.566,4,0
						c-1.611-17.004-14.215-31.917-30.854-36.045C2456.899,1238.265,2455.833,1242.122,2458.334,1242.742L2458.334,1242.742z"/>
					<path style="fill:#E28B6D;" d="M2487.457,1202.861c17.849,0.143,35.228,6.984,48.355,19.087
						c1.89,1.743,4.726-1.079,2.828-2.828c-13.904-12.819-32.267-20.106-51.184-20.258
						C2484.883,1198.84,2484.88,1202.84,2487.457,1202.861L2487.457,1202.861z"/>
					<path style="opacity:0.4;fill:#FC8879;" d="M2450.502,1551.369c-0.146,0.21-0.332,0.424-0.517,0.637
						c-25.46,29.137-65.683,32.507-95.879,15.54c5.6-18.829,24.958-33.513,48.901-35.161
						C2422.56,1531.04,2440.25,1538.723,2450.502,1551.369z"/>
				</g>
				<path style="fill:#708CD5;" d="M2384,1325.319l-121.32,53.36l-30.68-86.68l-294.68-2.68l-22.32,76.28l-0.32,1.08l-19-2.04
					l-106.36-11.32l18.28-60.88c48.4-132.44,95.96-151.16,183.52-170.6l14.68-3.28l71.52-15.88l74.68,1.32l76.68,24.48l20.64,6.6
					c58.88,18.8,103.8,66.72,118.8,126.68L2384,1325.319z"/>
				<path style="fill:#1F3C88;" d="M1914.32,1366.639l-18.64-2c-1.64-32.6,3.88-74.4,17-125.96
					C1908.8,1279.519,1910.24,1323.279,1914.32,1366.639z"/>
				<path style="fill:#F9B384;" d="M2228.68,1128.479c-37.28,61.16-117.581,96.519-163.121,92.559
					c-62.794-5.46-66.119-62.079-59.759-102.479l71.52-15.88l74.68,1.32L2228.68,1128.479z"/>
				<path style="fill:#F9B384;" d="M2193.32,1151.999l-168.64,8c7.32-10.48,14.12-22.4,20.28-36.64
					c7.64-17.76,14.2-39.16,19.04-66.04l55.52-17.64l61.8-19.68C2175.84,1066.479,2185.36,1135.879,2193.32,1151.999z"/>
				<path style="fill:#E28B6D;" d="M2120.68,1066.319c0,0-27.2,41.84-75.72,57.04c7.64-17.76,14.2-39.16,19.04-66.04l55.52-17.64
					L2120.68,1066.319z"/>
				<path style="fill:#E28B6D;" d="M2032.666,1158.666c-0.277,0-0.559-0.058-0.826-0.18c-1.006-0.457-1.45-1.643-0.993-2.647
					c12.235-26.921,22.426-58.438,28.694-88.745c0.225-1.081,1.28-1.77,2.364-1.554c1.081,0.225,1.777,1.282,1.554,2.364
					c-6.327,30.59-16.616,62.406-28.972,89.589C2034.152,1158.23,2033.426,1158.666,2032.666,1158.666z"/>
				<path style="fill:#F9B384;" d="M2212,952.679l-30.68,80.64l-60.64,33c-39,13.68-60.44,7.28-73.12-1.72
					c-6-4.28-11.04-9.68-14.16-15.96c-6.28-12.68-8.04-25.48-6.04-37.92c1.96-12.56,7.76-24.76,16.6-35.96
					c4.52-5.88,9.92-11.48,16.04-16.76l-10-46.68l18.68-30.64l77.32-12.68L2212,952.679z"/>
				<path style="fill:#102048;" d="M2203.333,990.666c-41.602-19.759-71.333-52.667-73.333-100
					c-33.883-4.517-58.717,10.648-77.333,39.333l-8.667,8.5l-2-38l25.5-33.5l89-13.5l64,73.5l9,55L2203.333,990.666z"/>
				<g>
					<path style="fill:#F9B384;" d="M2229,1008.999c-0.5,14-17.5,36.5-47.5,24.5c-13.333-5.333-7-9.574-7-22s8.993-20.837,23-24
						C2213,983.999,2229.444,996.581,2229,1008.999z"/>
					<path style="fill:#102048;" d="M2192.248,1022.249c-0.896,0-1.711-0.606-1.938-1.515c-1.419-5.678,0.415-11.339,4.908-15.145
						c5.468-4.634,13.44-5.353,21.33-1.925c1.013,0.441,1.477,1.618,1.036,2.632c-0.44,1.013-1.619,1.478-2.632,1.036
						c-6.454-2.808-12.867-2.318-17.149,1.309c-3.304,2.799-4.654,6.956-3.612,11.122c0.268,1.072-0.384,2.158-1.455,2.426
						C2192.572,1022.231,2192.409,1022.249,2192.248,1022.249z"/>
				</g>
				<g>
					<path style="fill:#102048;" d="M2086.659,961.234c0.915,6.479-6.836,9.675-11.563,11.712c-4.588,1.977-9.454,4.398-11.79,9.089
						c-5.006,10.053,3.41,19.797,12.154,23.743c2.328,1.051,4.364-2.395,2.019-3.454c-4.563-2.06-9.152-5.212-10.86-10.158
						c-1.883-5.453,0.345-10.27,5.141-13.159c4.38-2.638,9.497-3.823,13.568-7.01c3.699-2.896,5.854-7.114,5.188-11.827
						C2090.158,957.632,2086.303,958.712,2086.659,961.234L2086.659,961.234z"/>
					<path style="fill:#102048;" d="M2071.474,1022.242c9.725,2.585,19.949,0.313,27.78-5.953c2.01-1.608-0.837-4.422-2.828-2.828
						c-6.688,5.351-15.645,7.116-23.888,4.924C2070.047,1017.723,2068.984,1021.581,2071.474,1022.242L2071.474,1022.242z"/>
					<path style="fill:#102048;" d="M2119.669,968.986c-1.372,4.331-4.975,7.052-8.048,6.079s-4.453-5.273-3.082-9.604
						c1.372-4.331,4.975-7.052,8.049-6.079C2119.661,960.356,2121.041,964.656,2119.669,968.986z"/>
					<path style="fill:#102048;" d="M2077.912,960.433c-1.719,4.049-5.443,6.343-8.316,5.123c-2.874-1.22-3.81-5.492-2.09-9.541
						c1.719-4.049,5.443-6.343,8.316-5.123C2078.696,952.112,2079.631,956.383,2077.912,960.433z"/>
					<path style="fill:#102048;" d="M2084.03,939.638c0.034,1.657-4.025,3.086-9.067,3.192c-5.042,0.105-8.854,0.606-9.192-2.81
						c-0.399-4.029,4.025-3.086,9.067-3.192C2079.879,936.723,2083.995,937.981,2084.03,939.638z"/>
					<path style="fill:#102048;" d="M2110.544,944.236c-0.897,1.781,2.511,4.698,7.613,6.514s8.739,3.645,10.86,0.063
						c2.502-4.224-2.511-4.698-7.613-6.514C2116.303,942.483,2111.441,942.454,2110.544,944.236z"/>
					
						<ellipse transform="matrix(0.2298 -0.9732 0.9732 0.2298 667.0067 2846.4641)" style="opacity:0.4;fill:#FC8879;" cx="2131.833" cy="1001.833" rx="19.833" ry="19.833"/>
					<path style="opacity:0.4;fill:#FC8879;" d="M2055,992.519c0,10.92-8.88,19.8-19.84,19.8c-2.76,0-5.4-0.56-7.8-1.6
						c1.96-12.56,7.76-24.76,16.6-35.96C2050.52,977.959,2055,984.719,2055,992.519z"/>
				</g>
				<g>
					<path style="fill:#1F3C88;" d="M2002.275,1234.946c10.723,15.327,27.966,24.335,46.126,27.547
						c21.212,3.752,42.589-0.489,62.605-7.736c12.595-4.56,24.755-10.22,36.878-15.89c2.33-1.09,0.301-4.539-2.019-3.454
						c-35.911,16.796-78.578,35.633-117.461,16.507c-8.98-4.417-16.918-10.764-22.676-18.994
						C2004.264,1230.833,2000.795,1232.83,2002.275,1234.946L2002.275,1234.946z"/>
					<path style="fill:#1F3C88;" d="M2300.693,1171.537c-30.408,6.318-56.394,28.494-67.72,57.355
						c-0.941,2.397,2.926,3.437,3.857,1.063c10.824-27.583,35.968-48.545,64.926-54.561
						C2304.275,1174.871,2303.209,1171.015,2300.693,1171.537L2300.693,1171.537z"/>
					<path style="fill:#1F3C88;" d="M2303.064,1179.102c-14.632,6.702-26.925,17.853-35.105,31.705
						c-1.312,2.221,2.144,4.236,3.454,2.019c7.86-13.309,19.624-23.836,33.67-30.27
						C2307.42,1181.485,2305.39,1178.036,2303.064,1179.102L2303.064,1179.102z"/>
					<path style="fill:#1F3C88;" d="M2370.185,1317.017c-16.806,3.036-32.993,8.857-47.91,17.167
						c-2.249,1.253-0.234,4.709,2.019,3.454c14.632-8.152,30.473-13.787,46.955-16.764
						C2373.777,1320.417,2372.706,1316.562,2370.185,1317.017L2370.185,1317.017z"/>
					<path style="fill:#1F3C88;" d="M1804.196,1342.159c18.021,2.516,36.042,5.031,54.063,7.547
						c2.518,0.351,3.606-3.502,1.063-3.857c-18.021-2.516-36.042-5.031-54.063-7.547
						C1802.742,1337.95,1801.653,1341.804,1804.196,1342.159L1804.196,1342.159z"/>
					<path style="fill:#1F3C88;" d="M2014.387,1436.285c23.074,45.872,67.06,79.177,117.56,88.664
						c14.95,2.809,30.222,3.6,45.378,2.286c2.545-0.221,2.568-4.223,0-4c-51.49,4.465-102.787-16.101-136.757-55.057
						c-8.977-10.294-16.591-21.713-22.727-33.912C2016.684,1431.966,2013.232,1433.989,2014.387,1436.285L2014.387,1436.285z"/>
					<path style="fill:#1F3C88;" d="M2122.132,1476.771c12.265,15.47,27.624,28.322,44.994,37.702
						c2.265,1.223,4.287-2.229,2.019-3.454c-17.102-9.235-32.11-21.847-44.185-37.076
						C2123.362,1471.927,2120.548,1474.774,2122.132,1476.771L2122.132,1476.771z"/>
					<path style="fill:#1F3C88;" d="M1976.405,1182.198c2.594,12.126,6.427,25.193,13.868,35.311
						c1.509,2.052,4.982,0.059,3.454-2.019c-7.261-9.874-10.934-22.522-13.465-34.356
						C1979.724,1178.619,1975.867,1179.683,1976.405,1182.198L1976.405,1182.198z"/>
				</g>
				<g>
					<path style="fill:#F9B384;" d="M2229,1614.479l-173.48,1.52l-180-1.52c-33.44-1.72-60.8-10.32-80-25.44
						c-22.6-17.72-34.04-44.52-31.08-79.92c0.32-3.8,0.8-7.68,1.44-11.68l23.44-144.12l125.36,13.36l-28,134.64
						c95.32,26.68,143.32,40.68,169.64,54.68H2160L2229,1614.479z"/>
					<path style="fill:#E28B6D;" d="M1915,1365.599l-9.68,46.08c-5.48-12.76-8.72-28.4-9.64-47.04l19,2.04L1915,1365.599z"/>
					<path style="opacity:0.4;fill:#FC8879;" d="M1814.24,1554.479c0,13.84-7.24,26.2-18.72,34.56
						c-22.6-17.72-34.04-44.52-31.08-79.92C1792.28,1510.799,1814.24,1530.439,1814.24,1554.479z"/>
					<path style="fill:#E28B6D;" d="M2033.236,1572.782c7.678-4.623,15.356-9.246,23.034-13.87c2.203-1.326,0.194-4.786-2.019-3.454
						c-7.678,4.623-15.356,9.246-23.034,13.87C2029.014,1570.655,2031.023,1574.115,2033.236,1572.782L2033.236,1572.782z"/>
					<path style="fill:#E28B6D;" d="M2190.081,1610.918c-11.983-9.986-23.966-19.972-35.949-29.959
						c-1.964-1.637-4.809,1.178-2.828,2.828c11.983,9.986,23.966,19.973,35.949,29.959
						C2189.217,1615.384,2192.061,1612.569,2190.081,1610.918L2190.081,1610.918z"/>
					<path style="fill:#E28B6D;" d="M2130.07,1599.412c7.113,5.109,14.225,10.218,21.338,15.327
						c2.094,1.504,4.093-1.964,2.019-3.454c-7.113-5.109-14.225-10.218-21.338-15.327
						C2129.995,1594.454,2127.996,1597.922,2130.07,1599.412L2130.07,1599.412z"/>
				</g>
				<path style="fill:#E28B6D;" d="M2145.676,1060.726c13.466-6.042,25.626-14.581,36.238-24.813
					c1.857-1.79-0.974-4.616-2.829-2.828c-10.381,10.009-22.258,18.278-35.428,24.187
					C2141.313,1058.324,2143.344,1061.772,2145.676,1060.726L2145.676,1060.726z"/>
			</g>
		</g>
		<g>
			<g>
				<path style="fill:#102048;" d="M2398,958h-4v-9.11h4V958z M2398,925.417h-4v-23.472h4V925.417z M2398,878.473h-4v-23.472h4
					V878.473z M2398,831.528h-4v-23.472h4V831.528z M2398,784.584h-4v-23.472h4V784.584z M2398,737.64h-4v-23.472h4V737.64z
					 M2372.695,716h-23.472v-4h23.472V716z M2325.751,716h-23.473v-4h23.473V716z M2278.807,716h-23.473v-4h23.473V716z
					 M2231.862,716h-23.473v-4h23.473V716z M2184.917,716h-23.472v-4h23.472V716z M2137.973,716h-23.472v-4h23.472V716z
					 M2091.028,716h-23.473v-4h23.473V716z M2044.084,716h-23.473v-4h23.473V716z M1997.14,716h-23.473v-4h23.473V716z
					 M1950.194,716h-23.472v-4h23.472V716z M1903.25,716h-23.472v-4h23.472V716z M1856.306,716h-23.472v-4h23.472V716z
					 M1809.361,716h-23.473v-4h23.473V716z M1762.417,716h-23.473v-4h23.473V716z M1715.473,716H1692v-4h23.473V716z"/>
				<g>
					<rect x="1957.333" y="385.333" style="fill:#D3DFFF;" width="536" height="370.667"/>
					<g>
						<rect x="2036.333" y="540.567" style="fill:#708CD5;" width="42" height="166.432"/>
						<rect x="2120.333" y="594.322" style="fill:#708CD5;" width="42" height="112.677"/>
						<rect x="2204.333" y="561.111" style="fill:#708CD5;" width="42" height="145.888"/>
						<rect x="2288.333" y="495.578" style="fill:#708CD5;" width="42" height="211.422"/>
						<rect x="2372.333" y="444.213" style="fill:#708CD5;" width="42" height="262.786"/>
					</g>
				</g>
			</g>
			<g>
				<path style="fill:#102048;" d="M492,1357.999h-23.472v-4H492V1357.999z M445.056,1357.999h-23.473v-4h23.473V1357.999z
					 M408,1348.11h-4v-23.473h4V1348.11z M408,1301.165h-4v-23.472h4V1301.165z M408,1254.221h-4v-23.472h4V1254.221z M408,1207.276
					h-4v-23.472h4V1207.276z M408,1160.332h-4v-23.473h4V1160.332z M408,1113.388h-4v-23.473h4V1113.388z M408,1066.443h-4v-23.473
					h4V1066.443z M408,1019.498h-4v-23.472h4V1019.498z M408,972.554h-4v-23.473h4V972.554z M408,925.609h-4v-23.472h4V925.609z
					 M408,878.665h-4v-23.472h4V878.665z M408,831.721h-4v-23.473h4V831.721z M408,784.776h-4v-23.472h4V784.776z M408,737.831h-4
					v-23.472h4V737.831z M760,710h-8.276v-4H760V710z M728.252,710H704.78v-4h23.472V710z M681.308,710h-23.473v-4h23.473V710z
					 M634.363,710h-23.472v-4h23.472V710z M587.419,710h-23.472v-4h23.472V710z M540.474,710h-23.472v-4h23.472V710z M493.529,710
					h-23.472v-4h23.472V710z M446.585,710h-23.473v-4h23.473V710z"/>
				<g>
					<rect x="238.531" y="385.333" style="fill:#708CD5;" width="369.885" height="477.094"/>
					<g>
						<rect x="282.583" y="492.868" style="fill:#EDF2FF;" width="57" height="57"/>
						<rect x="377.25" y="492.868" style="fill:#D3DFFF;" width="103.027" height="21.474"/>
						<rect x="377.25" y="528.158" style="fill:#EDF2FF;" width="189.115" height="21.474"/>
						<polygon style="fill:#102048;" points="306.093,540.621 294.846,521.999 298.154,520 306.074,533.115 325.841,500.009 
							329.159,501.99 						"/>
						<rect x="282.583" y="602.202" style="fill:#EDF2FF;" width="57" height="57"/>
						<rect x="377.25" y="602.202" style="fill:#D3DFFF;" width="189.115" height="21.474"/>
						<rect x="377.25" y="637.492" style="fill:#EDF2FF;" width="123.831" height="21.474"/>
						<rect x="282.583" y="711.535" style="fill:#EDF2FF;" width="57" height="57"/>
						<rect x="377.25" y="711.535" style="fill:#D3DFFF;" width="177.165" height="21.474"/>
						<rect x="377.25" y="746.825" style="fill:#EDF2FF;" width="102.454" height="21.474"/>
						<polygon style="fill:#102048;" points="308.509,651.252 297.263,632.629 300.57,630.631 308.491,643.747 328.258,610.64 
							331.575,612.621 						"/>
						<polygon style="fill:#102048;" points="308.009,761.252 296.763,742.629 300.07,740.631 307.991,753.747 327.758,720.64 
							331.075,722.621 						"/>
					</g>
				</g>
				<g>
					<g>
						<path style="fill:#FFFFFF;" d="M464.557,1112.82H346.664c-6.916,0-12.522-5.607-12.522-12.523v-68.931
							c0-6.916,5.607-12.522,12.522-12.522h117.893c6.916,0,12.523,5.607,12.523,12.522v68.931
							C477.079,1107.214,471.473,1112.82,464.557,1112.82z"/>
						<path style="fill:#102048;" d="M464.557,1114.82H346.664c-8.008,0-14.523-6.515-14.523-14.522v-68.931
							c0-8.008,6.515-14.522,14.523-14.522h117.893c8.008,0,14.522,6.515,14.522,14.522v68.931
							C479.08,1108.306,472.565,1114.82,464.557,1114.82z M346.664,1020.845c-5.802,0-10.523,4.721-10.523,10.522v68.931
							c0,5.802,4.721,10.522,10.523,10.522h117.893c5.802,0,10.522-4.721,10.522-10.522v-68.931c0-5.802-4.72-10.522-10.522-10.522
							H346.664z"/>
					</g>
					<path style="fill:#102048;" d="M405.616,1076.129c-2.59,0-5.181-0.901-7.393-2.707l-61.662-48.902l2.183-2.752l61.681,48.918
						c3.158,2.576,7.213,2.576,10.353,0.016l61.909-49.19l2.186,2.75l-61.892,49.176
						C410.782,1075.23,408.2,1076.129,405.616,1076.129z"/>
				</g>
			</g>
			<g>
				<g>
					<rect x="1194.359" y="1401.906" style="fill:#F5C7BE;" width="475.484" height="319.427"/>
					<rect x="1244" y="1441.333" style="opacity:0.2;fill:#6F3428;" width="113.333" height="96"/>
					<rect x="1408" y="1441.333" style="opacity:0.2;fill:#6F3428;" width="208.896" height="96"/>
					<rect x="1244" y="1563.999" style="opacity:0.2;fill:#6F3428;" width="372.518" height="28"/>
					<rect x="1244" y="1606.666" style="opacity:0.15;fill:#6F3428;" width="240.013" height="28"/>
					<rect x="1244" y="1649.333" style="opacity:0.15;fill:#6F3428;" width="197.352" height="28"/>
				</g>
				<g>
					<path style="fill:#102048;" d="M1972,1805.928h-13.711v-4H1968v-9.761h4V1805.928z M1934.816,1805.928h-23.472v-4h23.472
						V1805.928z M1887.872,1805.928h-23.473v-4h23.473V1805.928z M1840.928,1805.928h-23.473v-4h23.473V1805.928z
						 M1793.983,1805.928h-23.473v-4h23.473V1805.928z M1747.038,1805.928h-23.472v-4h23.472V1805.928z M1700.094,1805.928h-23.472
						v-4h23.472V1805.928z M1653.149,1805.928h-23.472v-4h23.472V1805.928z M1606.205,1805.928h-23.473v-4h23.473V1805.928z
						 M1559.261,1805.928h-23.473v-4h23.473V1805.928z M1512.316,1805.928h-23.473v-4h23.473V1805.928z M1465.372,1805.928h-1.403
						v-4h1.403V1805.928z M1972,1768.694h-4v-23.473h4V1768.694z M1972,1721.75h-4v-15.261h12.212v4H1972V1721.75z M2496,1710.489
						h-22.871v-4H2492v-0.602h4V1710.489z M2449.656,1710.489h-23.472v-4h23.472V1710.489z M2402.712,1710.489h-23.472v-4h23.472
						V1710.489z M2355.768,1710.489h-23.472v-4h23.472V1710.489z M2308.823,1710.489h-23.473v-4h23.473V1710.489z
						 M2261.879,1710.489h-23.473v-4h23.473V1710.489z M2214.935,1710.489h-23.473v-4h23.473V1710.489z M2167.989,1710.489h-23.472
						v-4h23.472V1710.489z M2121.045,1710.489h-23.472v-4h23.472V1710.489z M2074.101,1710.489h-23.473v-4h23.473V1710.489z
						 M2027.156,1710.489h-23.473v-4h23.473V1710.489z M2496,1682.416h-4v-23.473h4V1682.416z M2496,1635.472h-4v-23.473h4V1635.472
						z"/>
					<circle style="fill:#102048;" cx="1970.045" cy="1709.062" r="19.891"/>
				</g>
			</g>
		</g>
	</g>
</g>
</svg>
